# xmcd CD database file
#
# Track frame offsets:
#	150
#	22147
#	39391
#	68685
#
# Disc length: 1212 seconds
#
# Revision: 6
# Processed by: cddbd v1.5.2PL0 Copyright (c) Steve Scherf et al.
# Submitted via: CDex 1.70beta2
#
DISCID=2d04ba04
DTITLE=La'Mule - ｢ナイフ｣ 2nd
DYEAR=2002
DGENRE=Rock
TTITLE0=Wing
TTITLE1=｢ナイフ｣
TTITLE2=弐月伍日ノ泪
TTITLE3=memory of flow
EXTD=YEAR: 2002
EXTT0=
EXTT1=
EXTT2=
EXTT3=
PLAYORDER=
